<svg fill="none" xmlns="http://www.w3.org/2000/svg" viewBox="0 0 41 40"><path d="M20.182 0C9.036 0 0 8.953 0 20.003S9.036 40 20.182 40c11.147 0 20.183-8.953 20.183-19.997S31.329 0 20.182 0Zm0 37.41c-9.707 0-17.567-7.8-17.567-17.407 0-9.608 7.86-17.414 17.567-17.414 9.708 0 17.568 7.801 17.568 17.414 0 9.612-7.866 17.407-17.568 17.407Z" fill="#231F20"/><path d="M30.056 26.672c-5.82 2.236-14.813-.74-15.232-.88l-.236-.085v-12.24l.242-.075c.408-.14 8.993-2.89 14.856-.965-2.54-1.796-6.008-2.905-9.842-2.905-7.763 0-14.067 4.556-14.067 10.175 0 5.619 6.304 10.17 14.067 10.17 4.027 0 7.651-1.233 10.218-3.19l-.006-.005Z" fill="#231F20"/><path d="M32.338 22.533c-2.738 1.903-8.365 0-8.365 0v-5.86s5.584-1.822 8.354 0c2.98 1.968 2.604 4.064.016 5.86m-.891-8.492c-4.907-3.238-14.561-.53-16.188-.037V25.17c1.61.51 11.361 3.335 16.21-.027 2.641-1.833 4.032-3.801 4.01-5.672-.016-1.855-1.374-3.678-4.032-5.431Z" fill="#231F20"/></svg>
